:SAMPLES-PER-SECOND 30
:FULLY-SPECIFIED
:DEGREES
112
root  26.4079 21.8804 -0.167985 173.697 -82.4635 -135.596
RightUpLeg  -30.7767 -6.45892 -3.99096
RightLeg  94.3269 1.7682 -13.0797
RightFoot  -9.88017 -0.328631 20.7727
RightToes  -1.33073e-015 0 -3.6325e-017
Spine  48.1561 -3.72111 15.0954
Spine1  -2.35062 4.46377 -6.36782
HEad  -38.6292 1.58616 -8.38011
LeftShoulder1  11.4738 -20.9759 -40.5186
LeftArm  -5.85663 -48.975 -35.1079
LeftForeArm  64.4013 -30.3599 -3.33872
LeftHand  -0.244104 0.0205437 5.32207
RightShoulder  2.97342 12.8588 10.9959
RightArm  -20.2125 62.9524 45.0352
RightForeArm  30.0398 1.33167 0.602894
RightHand  -31.944 42.5186 -68.1789
LeftUpLeg  -40.5172 6.74617 2.02524
LeftLeg  106.607 -3.93156 10.6902
LeftFoot  -21.3819 -0.784112 -10.3603
LeftToes  -7.82198e-011 2.46994e-011 -7.94165e-012
113
root  26.1977 21.8959 -0.120252 174.306 -82.2677 -135.598
RightUpLeg  -35.6297 -4.68191 -4.58246
RightLeg  98.7522 1.85711 -8.1498
RightFoot  -5.42202 -0.966356 17.6744
RightToes  -1.33073e-015 0 -3.6325e-017
Spine  47.8645 -3.68141 15.3022
Spine1  -2.69078 4.38397 -5.94988
HEad  -38.6852 2.15943 -9.56573
LeftShoulder1  10.6629 -20.3745 -38.4228
LeftArm  -11.4108 -52.8579 -32.8169
LeftForeArm  65.598 -32.7774 -3.81825
LeftHand  -0.244104 0.0205437 5.32207
RightShoulder  3.02114 13.3448 10.7249
RightArm  -19.5601 62.2808 45.9025
RightForeArm  31.5648 1.44947 0.567444
RightHand  -31.9685 42.5648 -68.1661
LeftUpLeg  -40.5829 6.92917 1.83715
LeftLeg  106.037 -3.83687 10.7656
LeftFoot  -21.2829 -0.775151 -10.3542
LeftToes  -7.82198e-011 2.46994e-011 -7.94165e-012
114
root  26.037 21.914 -0.0900258 172.319 -82.6562 -133.441
RightUpLeg  -40.9347 -4.0032 -5.02123
RightLeg  105.135 2.04025 -5.31514
RightFoot  -6.36105 -0.690315 14.603
RightToes  -1.33073e-015 0 -3.6325e-017
Spine  47.8255 -3.81488 15.6021
Spine1  -3.23994 4.08225 -4.58267
HEad  -38.6149 2.63049 -10.7525
LeftShoulder1  10.0706 -19.9101 -36.847
LeftArm  -16.9809 -57.3111 -28.3716
LeftForeArm  65.1208 -32.9578 -3.87885
LeftHand  -0.244104 0.0205437 5.32207
RightShoulder  3.08077 13.7364 10.6534
RightArm  -18.5651 61.6486 46.5249
RightForeArm  32.6934 1.61771 0.728884
RightHand  -32.2586 42.7127 -68.4946
LeftUpLeg  -40.3903 6.37205 2.03777
LeftLeg  105.656 -3.66495 10.4884
LeftFoot  -21.1074 -0.749446 -10.2294
LeftToes  -7.82198e-011 2.46994e-011 -7.94165e-012
115
root  25.8914 21.9464 -0.0925946 168.542 -83.7797 -129.989
RightUpLeg  -46.2407 -4.73205 -5.33079
RightLeg  112.224 3.91878 -7.66063
RightFoot  -10.5064 -0.160656 12.2879
RightToes  -1.33073e-015 0 -3.6325e-017
Spine  48.0364 -4.06647 15.9386
Spine1  -3.92688 3.62729 -2.49289
HEad  -38.4158 2.66921 -11.7792
LeftShoulder1  9.84754 -20.1076 -35.5724
LeftArm  -23.0388 -61.4098 -21.9623
LeftForeArm  64.2527 -31.2493 -3.53726
LeftHand  -0.244104 0.0205437 5.32207
RightShoulder  3.14426 13.7413 11.0582
RightArm  -17.7061 60.793 47.0237
RightForeArm  33.846 2.18904 0.907121
RightHand  -32.3998 42.7708 -68.6699
LeftUpLeg  -39.7978 5.05487 2.36881
LeftLeg  105.257 -3.45042 10.0771
LeftFoot  -20.8418 -0.72763 -10.2361
LeftToes  -7.82198e-011 2.46994e-011 -7.94165e-012
116
root  25.7467 21.9671 -0.150668 163.743 -85.3458 -125.892
RightUpLeg  -51.1709 -5.78957 -5.78795
RightLeg  117.949 7.20438 -11.6159
RightFoot  -14.808 0.229972 10.8704
RightToes  -1.33073e-015 0 -3.6325e-017
Spine  48.6321 -4.38284 15.9256
Spine1  -4.63782 3.01582 -0.283435
HEad  -38.4844 2.62812 -12.5992
LeftShoulder1  9.74271 -20.7333 -34.0739
LeftArm  -29.9885 -64.4356 -14.1929
LeftForeArm  63.0477 -28.7003 -3.03673
LeftHand  -0.244104 0.0205437 5.32207
RightShoulder  3.19783 13.5338 11.6531
RightArm  -16.9169 59.864 47.6096
RightForeArm  35.0519 3.09686 1.07725
RightHand  -32.2058 42.6787 -68.4436
LeftUpLeg  -38.8586 3.40955 2.57014
LeftLeg  104.838 -3.26349 9.74243
LeftFoot  -20.5905 -0.719753 -10.3984
LeftToes  -7.82198e-011 2.46994e-011 -7.94165e-012
117
root  25.5507 21.9792 -0.261074 152.455 -87.1122 -115.636
RightUpLeg  -55.0994 -6.14106 -6.80757
RightLeg  121.112 8.7308 -12.4795
RightFoot  -18.0348 0.470931 10.0799
RightToes  -1.33073e-015 0 -3.6325e-017
Spine  49.6623 -4.93021 15.6223
Spine1  -5.2698 2.12222 1.99263
HEad  -38.9013 2.93008 -13.2882
LeftShoulder1  9.5058 -21.1127 -32.4915
LeftArm  -37.1974 -66.4336 -5.64414
LeftForeArm  60.8123 -25.6554 -2.5179
LeftHand  -0.244104 0.0205437 5.32207
RightShoulder  3.24871 13.4782 12.0531
RightArm  -15.8586 59.215 48.4328
RightForeArm  36.0747 3.8436 1.28835
RightHand  -32.1522 42.6615 -68.3709
LeftUpLeg  -37.4511 1.61794 2.76473
LeftLeg  104.295 -3.10621 9.56095
LeftFoot  -20.3609 -0.710898 -10.5337
LeftToes  -7.82198e-011 2.46994e-011 -7.94165e-012
118
root  25.2742 21.9952 -0.414295 110.883 -88.4464 -75.3623
RightUpLeg  -57.4078 -5.97991 -8.57404
RightLeg  121.837 7.69736 -10.6284
RightFoot  -19.7042 0.642382 10.5815
RightToes  -1.33073e-015 0 -3.6325e-017
Spine  50.898 -5.69096 15.1558
Spine1  -5.73228 0.957255 4.46001
HEad  -39.39 3.38845 -13.8554
LeftShoulder1  9.30086 -21.2097 -31.5088
LeftArm  -43.695 -67.9567 3.31349
LeftForeArm  57.9269 -21.6677 -2.32745
LeftHand  -0.244104 0.0205437 5.32207
RightShoulder  3.30602 13.5712 12.3085
RightArm  -14.5558 58.8047 49.3603
RightForeArm  36.6381 4.14504 1.5364
RightHand  -32.5447 42.8334 -68.8451
LeftUpLeg  -35.5695 -0.456291 2.90784
LeftLeg  103.523 -2.9365 9.46497
LeftFoot  -20.0962 -0.690825 -10.571
LeftToes  -7.82198e-011 2.46994e-011 -7.94165e-012
119
root  24.9055 22.0214 -0.609073 29.8382 -87.5615 3.8136
RightUpLeg  -57.2828 -6.31319 -9.87352
RightLeg  120.92 6.79558 -9.69013
RightFoot  -18.5763 0.645973 12.2368
RightToes  -1.33073e-015 0 -3.6325e-017
Spine  52.4866 -6.78972 14.9741
Spine1  -6.10127 -0.259324 6.52287
HEad  -39.8224 3.53681 -14.1684
LeftShoulder1  9.35242 -21.5728 -31.1603
LeftArm  -49.9197 -69.1781 11.4352
LeftForeArm  56.6176 -16.9711 -3.17507
LeftHand  -0.244104 0.0205437 5.32207
RightShoulder  3.4214 13.5869 13.0351
RightArm  -13.349 58.2397 49.7507
RightForeArm  36.6915 4.17233 1.84114
RightHand  -33.065 43.0302 -69.5045
LeftUpLeg  -32.8463 -2.96148 3.28519
LeftLeg  102.484 -2.70124 9.28619
LeftFoot  -19.868 -0.673002 -10.5981
LeftToes  -7.82198e-011 2.46994e-011 -7.94165e-012
120
root  24.4583 21.9628 -0.865374 10.9671 -85.5164 21.5987
RightUpLeg  -56.6944 -7.17728 -10.2775
RightLeg  120.354 7.45524 -10.8949
RightFoot  -14.9578 0.341226 14.0513
RightToes  -1.33073e-015 0 -3.6325e-017
Spine  53.143 -7.30174 14.3717
Spine1  -6.22865 -1.1676 7.91363
HEad  -40.3145 3.32297 -14.3125
LeftShoulder1  9.51855 -22.1634 -30.9363
LeftArm  -54.6432 -70.122 16.4406
LeftForeArm  56.2877 -12.7486 -4.2948
LeftHand  -0.244104 0.0205437 5.32207
RightShoulder  3.63099 13.5532 14.4285
RightArm  -12.4378 57.3589 49.287
RightForeArm  36.6419 4.11557 2.19689
RightHand  -33.3992 43.1462 -69.9354
LeftUpLeg  -30.6262 -4.99194 3.40227
LeftLeg  101.307 -2.4335 9.03259
LeftFoot  -19.7857 -0.670999 -10.6676
LeftToes  -7.82198e-011 2.46994e-011 -7.94165e-012
121
root  23.9327 21.8072 -1.15069 0.190247 -83.9994 32.2847
RightUpLeg  -55.7998 -8.29438 -10.3544
RightLeg  120.569 8.47157 -12.3222
RightFoot  -12.0309 0.0178686 16.1086
RightToes  -1.33073e-015 0 -3.6325e-017
Spine  52.7258 -7.14874 13.0995
Spine1  -6.02751 -1.89484 8.93852
HEad  -40.8527 3.08257 -14.4909
LeftShoulder1  9.47608 -22.3173 -30.5425
LeftArm  -56.3086 -71.1563 17.5101
LeftForeArm  54.903 -9.42551 -4.88807
LeftHand  -0.244104 0.0205437 5.32207
RightShoulder  3.8693 13.7184 15.7191
RightArm  -11.8738 56.1396 48.672
RightForeArm  36.943 4.09433 2.47544
RightHand  -33.6594 43.2681 -70.2304
LeftUpLeg  -29.0547 -6.27657 3.11343
LeftLeg  99.97 -2.15063 8.76562
LeftFoot  -19.8414 -0.687578 -10.8234
LeftToes  -7.82198e-011 2.46994e-011 -7.94165e-012
122
root  23.343 21.647 -1.4271 -7.62256 -82.6477 40.2696
RightUpLeg  -53.666 -9.49013 -10.4855
RightLeg  120.416 8.96553 -13.1266
RightFoot  -12.0628 0.0379083 18.4061
RightToes  -1.33073e-015 0 -3.6325e-017
Spine  52.1582 -6.85761 11.6077
Spine1  -5.76151 -2.58495 9.95056
HEad  -41.3271 2.96146 -14.5936
LeftShoulder1  9.26401 -22.0502 -30.0972
LeftArm  -54.6427 -72.6066 15.681
LeftForeArm  52.8242 -6.14373 -5.32545
LeftHand  -0.244104 0.0205437 5.32207
RightShoulder  4.04569 14.0931 16.2897
RightArm  -11.7768 54.2692 48.6516
RightForeArm  37.4956 4.47843 2.56257
RightHand  -34.0958 43.4791 -70.7122
LeftUpLeg  -27.4821 -7.24784 2.70276
LeftLeg  98.3637 -1.83513 8.46656
LeftFoot  -19.9721 -0.731051 -11.2406
LeftToes  -7.82198e-011 2.46994e-011 -7.94165e-012
123
root  22.6875 21.5809 -1.664 -8.37305 -81.7061 41.1817
RightUpLeg  -50.7091 -10.5739 -9.72084
RightLeg  118.88 9.32697 -14.4966
RightFoot  -13.7695 0.335816 20.1221
RightToes  -1.33073e-015 0 -3.6325e-017
Spine  52.142 -6.88215 11.0307
Spine1  -5.89653 -2.88282 10.3404
HEad  -41.8953 2.86238 -14.2852
LeftShoulder1  9.23706 -22.1589 -29.8324
LeftArm  -49.7665 -73.9936 11.6123
LeftForeArm  52.2787 -2.76968 -6.18805
LeftHand  -0.244104 0.0205437 5.32207
RightShoulder  4.26275 14.4814 17.0575
RightArm  -12.0891 51.644 48.7169
RightForeArm  37.9391 5.61202 2.57524
RightHand  -34.8182 43.77 -71.5669
LeftUpLeg  -25.7566 -7.95131 3.08235
LeftLeg  96.3885 -1.48554 8.17653
LeftFoot  -20.1004 -0.790011 -11.8505
LeftToes  -7.82198e-011 2.46994e-011 -7.94165e-012
